<svg baseProfile="full" height="280" version="1.1" width="280" xmlns="http://www.w3.org/2000/svg" xmlns:ev="http://www.w3.org/2001/xml-events" xmlns:xlink="http://www.w3.org/1999/xlink"><defs><symbol id="m1" viewBox="0,0,1,1"><path d="M 0.3125 0.0625 h 0.375 a 0.25 0.25 0 0 1 0.25 0.25 v 0.375 a 0.25 0.25 0 0 1 -0.25 0.25 h -0.375 a 0.25 0.25 0 0 1 -0.25 -0.25 v -0.375 a 0.25 0.25 0 0 1 0.25 -0.25 Z" fill="#f00" /></symbol><symbol id="m2" viewBox="0,0,1,1"><path d="M 0.3125 0.0625 h 0.375 a 0.25 0.25 0 0 1 0.25 0.25 v 0.375 a 0.25 0.25 0 0 1 -0.25 0.25 h -0.375 a 0.25 0.25 0 0 1 -0.25 -0.25 v -0.375 a 0.25 0.25 0 0 1 0.25 -0.25 Z" fill="#0f0" /></symbol><symbol id="m3" viewBox="0,0,1,1"><path d="M 0.3125 0.0625 h 0.375 a 0.25 0.25 0 0 1 0.25 0.25 v 0.375 a 0.25 0.25 0 0 1 -0.25 0.25 h -0.375 a 0.25 0.25 0 0 1 -0.25 -0.25 v -0.375 a 0.25 0.25 0 0 1 0.25 -0.25 Z" fill="#00f" /></symbol></defs><g transform="scale(8)"><path d="M 3 2 h 29 a 1 1 0 0 1 1 1 v 29 a 1 1 0 0 1 -1 1 h -29 a 1 1 0 0 1 -1 -1 v -29 a 1 1 0 0 1 1 -1 Z" fill="#000" /><path d="M 4.5 4 h 26.0 a 0.5 0.5 0 0 1 0.5 0.5 v 26.0 a 0.5 0.5 0 0 1 -0.5 0.5 h -26.0 a 0.5 0.5 0 0 1 -0.5 -0.5 v -26.0 a 0.5 0.5 0 0 1 0.5 -0.5 Z" fill="#fff" /><use height="1" width="1" x="5" xlink:href="#m1" y="8" /><use height="1" width="1" x="5" xlink:href="#m2" y="10" /><use height="1" width="1" x="5" xlink:href="#m1" y="12" /><use height="1" width="1" x="5" xlink:href="#m2" y="13" /><use height="1" width="1" x="5" xlink:href="#m2" y="14" /><use height="1" width="1" x="5" xlink:href="#m3" y="17" /><use height="1" width="1" x="5" xlink:href="#m1" y="19" /><use height="1" width="1" x="5" xlink:href="#m2" y="20" /><use height="1" width="1" x="5" xlink:href="#m2" y="21" /><use height="1" width="1" x="5" xlink:href="#m2" y="23" /><use height="1" width="1" x="5" xlink:href="#m3" y="27" /><use height="1" width="1" x="5" xlink:href="#m3" y="29" /><use height="1" width="1" x="6" xlink:href="#m3" y="6" /><use height="1" width="1" x="6" xlink:href="#m2" y="8" /><use height="1" width="1" x="6" xlink:href="#m2" y="9" /><use height="1" width="1" x="6" xlink:href="#m1" y="10" /><use height="1" width="1" x="6" xlink:href="#m3" y="11" /><use height="1" width="1" x="6" xlink:href="#m3" y="12" /><use height="1" width="1" x="6" xlink:href="#m2" y="13" /><use height="1" width="1" x="6" xlink:href="#m3" y="14" /><use height="1" width="1" x="6" xlink:href="#m1" y="15" /><use height="1" width="1" x="6" xlink:href="#m2" y="19" /><use height="1" width="1" x="6" xlink:href="#m2" y="20" /><use height="1" width="1" x="6" xlink:href="#m3" y="21" /><use height="1" width="1" x="6" xlink:href="#m2" y="22" /><use height="1" width="1" x="6" xlink:href="#m3" y="23" /><use height="1" width="1" x="6" xlink:href="#m1" y="24" /><use height="1" width="1" x="6" xlink:href="#m3" y="25" /><use height="1" width="1" x="6" xlink:href="#m1" y="27" /><use height="1" width="1" x="7" xlink:href="#m1" y="10" /><use height="1" width="1" x="7" xlink:href="#m2" y="11" /><use height="1" width="1" x="7" xlink:href="#m2" y="12" /><use height="1" width="1" x="7" xlink:href="#m1" y="13" /><use height="1" width="1" x="7" xlink:href="#m1" y="14" /><use height="1" width="1" x="7" xlink:href="#m3" y="15" /><use height="1" width="1" x="7" xlink:href="#m1" y="17" /><use height="1" width="1" x="7" xlink:href="#m2" y="18" /><use height="1" width="1" x="7" xlink:href="#m2" y="21" /><use height="1" width="1" x="7" xlink:href="#m2" y="22" /><use height="1" width="1" x="7" xlink:href="#m2" y="23" /><use height="1" width="1" x="7" xlink:href="#m1" y="24" /><use height="1" width="1" x="7" xlink:href="#m2" y="25" /><use height="1" width="1" x="7" xlink:href="#m3" y="26" /><use height="1" width="1" x="7" xlink:href="#m3" y="27" /><use height="1" width="1" x="7" xlink:href="#m1" y="28" /><use height="1" width="1" x="7" xlink:href="#m2" y="29" /><use height="1" width="1" x="8" xlink:href="#m3" y="5" /><use height="1" width="1" x="8" xlink:href="#m3" y="7" /><use height="1" width="1" x="8" xlink:href="#m3" y="8" /><use height="1" width="1" x="8" xlink:href="#m3" y="9" /><use height="1" width="1" x="8" xlink:href="#m1" y="10" /><use height="1" width="1" x="8" xlink:href="#m1" y="11" /><use height="1" width="1" x="8" xlink:href="#m2" y="13" /><use height="1" width="1" x="8" xlink:href="#m2" y="15" /><use height="1" width="1" x="8" xlink:href="#m2" y="16" /><use height="1" width="1" x="8" xlink:href="#m3" y="18" /><use height="1" width="1" x="8" xlink:href="#m1" y="20" /><use height="1" width="1" x="8" xlink:href="#m3" y="21" /><use height="1" width="1" x="8" xlink:href="#m2" y="23" /><use height="1" width="1" x="8" xlink:href="#m2" y="24" /><use height="1" width="1" x="8" xlink:href="#m3" y="27" /><use height="1" width="1" x="8" xlink:href="#m2" y="28" /><use height="1" width="1" x="8" xlink:href="#m1" y="29" /><use height="1" width="1" x="9" xlink:href="#m1" y="5" /><use height="1" width="1" x="9" xlink:href="#m3" y="6" /><use height="1" width="1" x="9" xlink:href="#m3" y="7" /><use height="1" width="1" x="9" xlink:href="#m1" y="8" /><use height="1" width="1" x="9" xlink:href="#m2" y="10" /><use height="1" width="1" x="9" xlink:href="#m2" y="11" /><use height="1" width="1" x="9" xlink:href="#m3" y="12" /><use height="1" width="1" x="9" xlink:href="#m3" y="13" /><use height="1" width="1" x="9" xlink:href="#m1" y="14" /><use height="1" width="1" x="9" xlink:href="#m1" y="15" /><use height="1" width="1" x="9" xlink:href="#m2" y="16" /><use height="1" width="1" x="9" xlink:href="#m3" y="17" /><use height="1" width="1" x="9" xlink:href="#m3" y="18" /><use height="1" width="1" x="9" xlink:href="#m1" y="19" /><use height="1" width="1" x="9" xlink:href="#m3" y="20" /><use height="1" width="1" x="9" xlink:href="#m3" y="22" /><use height="1" width="1" x="9" xlink:href="#m3" y="23" /><use height="1" width="1" x="9" xlink:href="#m1" y="24" /><use height="1" width="1" x="9" xlink:href="#m1" y="25" /><use height="1" width="1" x="9" xlink:href="#m3" y="26" /><use height="1" width="1" x="9" xlink:href="#m3" y="27" /><use height="1" width="1" x="9" xlink:href="#m3" y="28" /><use height="1" width="1" x="9" xlink:href="#m3" y="29" /><use height="1" width="1" x="10" xlink:href="#m3" y="5" /><use height="1" width="1" x="10" xlink:href="#m2" y="6" /><use height="1" width="1" x="10" xlink:href="#m3" y="7" /><use height="1" width="1" x="10" xlink:href="#m3" y="8" /><use height="1" width="1" x="10" xlink:href="#m1" y="9" /><use height="1" width="1" x="10" xlink:href="#m3" y="10" /><use height="1" width="1" x="10" xlink:href="#m1" y="13" /><use height="1" width="1" x="10" xlink:href="#m1" y="14" /><use height="1" width="1" x="10" xlink:href="#m2" y="15" /><use height="1" width="1" x="10" xlink:href="#m1" y="16" /><use height="1" width="1" x="10" xlink:href="#m1" y="17" /><use height="1" width="1" x="10" xlink:href="#m2" y="19" /><use height="1" width="1" x="10" xlink:href="#m1" y="20" /><use height="1" width="1" x="10" xlink:href="#m2" y="21" /><use height="1" width="1" x="10" xlink:href="#m3" y="25" /><use height="1" width="1" x="10" xlink:href="#m3" y="26" /><use height="1" width="1" x="10" xlink:href="#m2" y="27" /><use height="1" width="1" x="11" xlink:href="#m3" y="5" /><use height="1" width="1" x="11" xlink:href="#m2" y="6" /><use height="1" width="1" x="11" xlink:href="#m2" y="7" /><use height="1" width="1" x="11" xlink:href="#m1" y="8" /><use height="1" width="1" x="11" xlink:href="#m2" y="9" /><use height="1" width="1" x="11" xlink:href="#m3" y="10" /><use height="1" width="1" x="11" xlink:href="#m2" y="11" /><use height="1" width="1" x="11" xlink:href="#m3" y="14" /><use height="1" width="1" x="11" xlink:href="#m1" y="15" /><use height="1" width="1" x="11" xlink:href="#m1" y="16" /><use height="1" width="1" x="11" xlink:href="#m3" y="17" /><use height="1" width="1" x="11" xlink:href="#m1" y="18" /><use height="1" width="1" x="11" xlink:href="#m1" y="21" /><use height="1" width="1" x="11" xlink:href="#m2" y="25" /><use height="1" width="1" x="11" xlink:href="#m3" y="26" /><use height="1" width="1" x="11" xlink:href="#m2" y="27" /><use height="1" width="1" x="11" xlink:href="#m3" y="29" /><use height="1" width="1" x="12" xlink:href="#m2" y="5" /><use height="1" width="1" x="12" xlink:href="#m2" y="6" /><use height="1" width="1" x="12" xlink:href="#m3" y="7" /><use height="1" width="1" x="12" xlink:href="#m2" y="9" /><use height="1" width="1" x="12" xlink:href="#m1" y="10" /><use height="1" width="1" x="12" xlink:href="#m3" y="11" /><use height="1" width="1" x="12" xlink:href="#m2" y="12" /><use height="1" width="1" x="12" xlink:href="#m2" y="13" /><use height="1" width="1" x="12" xlink:href="#m3" y="15" /><use height="1" width="1" x="12" xlink:href="#m1" y="16" /><use height="1" width="1" x="12" xlink:href="#m3" y="20" /><use height="1" width="1" x="12" xlink:href="#m2" y="21" /><use height="1" width="1" x="12" xlink:href="#m2" y="22" /><use height="1" width="1" x="12" xlink:href="#m1" y="23" /><use height="1" width="1" x="12" xlink:href="#m1" y="24" /><use height="1" width="1" x="12" xlink:href="#m2" y="25" /><use height="1" width="1" x="12" xlink:href="#m2" y="26" /><use height="1" width="1" x="13" xlink:href="#m2" y="6" /><use height="1" width="1" x="13" xlink:href="#m3" y="7" /><use height="1" width="1" x="13" xlink:href="#m1" y="10" /><use height="1" width="1" x="13" xlink:href="#m1" y="12" /><use height="1" width="1" x="13" xlink:href="#m2" y="13" /><use height="1" width="1" x="13" xlink:href="#m1" y="14" /><use height="1" width="1" x="13" xlink:href="#m3" y="15" /><use height="1" width="1" x="13" xlink:href="#m2" y="16" /><use height="1" width="1" x="13" xlink:href="#m3" y="17" /><use height="1" width="1" x="13" xlink:href="#m3" y="18" /><use height="1" width="1" x="13" xlink:href="#m3" y="19" /><use height="1" width="1" x="13" xlink:href="#m2" y="21" /><use height="1" width="1" x="13" xlink:href="#m1" y="22" /><use height="1" width="1" x="13" xlink:href="#m2" y="23" /><use height="1" width="1" x="13" xlink:href="#m1" y="24" /><use height="1" width="1" x="13" xlink:href="#m3" y="25" /><use height="1" width="1" x="13" xlink:href="#m1" y="26" /><use height="1" width="1" x="13" xlink:href="#m2" y="27" /><use height="1" width="1" x="13" xlink:href="#m3" y="28" /><use height="1" width="1" x="13" xlink:href="#m3" y="29" /><use height="1" width="1" x="14" xlink:href="#m3" y="7" /><use height="1" width="1" x="14" xlink:href="#m2" y="8" /><use height="1" width="1" x="14" xlink:href="#m1" y="9" /><use height="1" width="1" x="14" xlink:href="#m2" y="13" /><use height="1" width="1" x="14" xlink:href="#m2" y="14" /><use height="1" width="1" x="14" xlink:href="#m1" y="15" /><use height="1" width="1" x="14" xlink:href="#m2" y="16" /><use height="1" width="1" x="14" xlink:href="#m2" y="17" /><use height="1" width="1" x="14" xlink:href="#m1" y="19" /><use height="1" width="1" x="14" xlink:href="#m1" y="20" /><use height="1" width="1" x="14" xlink:href="#m2" y="25" /><use height="1" width="1" x="14" xlink:href="#m2" y="26" /><use height="1" width="1" x="14" xlink:href="#m2" y="27" /><use height="1" width="1" x="14" xlink:href="#m2" y="28" /><use height="1" width="1" x="15" xlink:href="#m2" y="7" /><use height="1" width="1" x="15" xlink:href="#m2" y="8" /><use height="1" width="1" x="15" xlink:href="#m1" y="10" /><use height="1" width="1" x="15" xlink:href="#m2" y="11" /><use height="1" width="1" x="15" xlink:href="#m1" y="14" /><use height="1" width="1" x="15" xlink:href="#m2" y="18" /><use height="1" width="1" x="15" xlink:href="#m2" y="19" /><use height="1" width="1" x="15" xlink:href="#m1" y="21" /><use height="1" width="1" x="15" xlink:href="#m3" y="24" /><use height="1" width="1" x="15" xlink:href="#m1" y="26" /><use height="1" width="1" x="15" xlink:href="#m3" y="28" /><use height="1" width="1" x="16" xlink:href="#m3" y="7" /><use height="1" width="1" x="16" xlink:href="#m2" y="9" /><use height="1" width="1" x="16" xlink:href="#m1" y="10" /><use height="1" width="1" x="16" xlink:href="#m3" y="12" /><use height="1" width="1" x="16" xlink:href="#m2" y="13" /><use height="1" width="1" x="16" xlink:href="#m3" y="14" /><use height="1" width="1" x="16" xlink:href="#m3" y="19" /><use height="1" width="1" x="16" xlink:href="#m3" y="22" /><use height="1" width="1" x="16" xlink:href="#m2" y="24" /><use height="1" width="1" x="16" xlink:href="#m2" y="25" /><use height="1" width="1" x="16" xlink:href="#m2" y="27" /><use height="1" width="1" x="17" xlink:href="#m3" y="5" /><use height="1" width="1" x="17" xlink:href="#m2" y="7" /><use height="1" width="1" x="17" xlink:href="#m2" y="8" /><use height="1" width="1" x="17" xlink:href="#m3" y="9" /><use height="1" width="1" x="17" xlink:href="#m1" y="10" /><use height="1" width="1" x="17" xlink:href="#m1" y="11" /><use height="1" width="1" x="17" xlink:href="#m3" y="13" /><use height="1" width="1" x="17" xlink:href="#m1" y="14" /><use height="1" width="1" x="17" xlink:href="#m1" y="15" /><use height="1" width="1" x="17" xlink:href="#m3" y="17" /><use height="1" width="1" x="17" xlink:href="#m1" y="19" /><use height="1" width="1" x="17" xlink:href="#m2" y="20" /><use height="1" width="1" x="17" xlink:href="#m2" y="21" /><use height="1" width="1" x="17" xlink:href="#m3" y="22" /><use height="1" width="1" x="17" xlink:href="#m1" y="23" /><use height="1" width="1" x="17" xlink:href="#m1" y="24" /><use height="1" width="1" x="17" xlink:href="#m3" y="25" /><use height="1" width="1" x="17" xlink:href="#m3" y="27" /><use height="1" width="1" x="17" xlink:href="#m3" y="29" /><use height="1" width="1" x="18" xlink:href="#m1" y="7" /><use height="1" width="1" x="18" xlink:href="#m1" y="8" /><use height="1" width="1" x="18" xlink:href="#m1" y="9" /><use height="1" width="1" x="18" xlink:href="#m1" y="10" /><use height="1" width="1" x="18" xlink:href="#m3" y="11" /><use height="1" width="1" x="18" xlink:href="#m1" y="12" /><use height="1" width="1" x="18" xlink:href="#m2" y="15" /><use height="1" width="1" x="18" xlink:href="#m3" y="19" /><use height="1" width="1" x="18" xlink:href="#m1" y="21" /><use height="1" width="1" x="18" xlink:href="#m3" y="22" /><use height="1" width="1" x="18" xlink:href="#m1" y="23" /><use height="1" width="1" x="18" xlink:href="#m2" y="24" /><use height="1" width="1" x="18" xlink:href="#m1" y="25" /><use height="1" width="1" x="18" xlink:href="#m2" y="26" /><use height="1" width="1" x="18" xlink:href="#m2" y="27" /><use height="1" width="1" x="19" xlink:href="#m1" y="6" /><use height="1" width="1" x="19" xlink:href="#m2" y="7" /><use height="1" width="1" x="19" xlink:href="#m1" y="8" /><use height="1" width="1" x="19" xlink:href="#m3" y="9" /><use height="1" width="1" x="19" xlink:href="#m3" y="11" /><use height="1" width="1" x="19" xlink:href="#m2" y="12" /><use height="1" width="1" x="19" xlink:href="#m2" y="13" /><use height="1" width="1" x="19" xlink:href="#m1" y="14" /><use height="1" width="1" x="19" xlink:href="#m1" y="15" /><use height="1" width="1" x="19" xlink:href="#m2" y="16" /><use height="1" width="1" x="19" xlink:href="#m1" y="18" /><use height="1" width="1" x="19" xlink:href="#m2" y="19" /><use height="1" width="1" x="19" xlink:href="#m1" y="20" /><use height="1" width="1" x="19" xlink:href="#m2" y="21" /><use height="1" width="1" x="19" xlink:href="#m3" y="22" /><use height="1" width="1" x="19" xlink:href="#m3" y="24" /><use height="1" width="1" x="19" xlink:href="#m2" y="25" /><use height="1" width="1" x="19" xlink:href="#m3" y="26" /><use height="1" width="1" x="19" xlink:href="#m3" y="27" /><use height="1" width="1" x="19" xlink:href="#m2" y="28" /><use height="1" width="1" x="20" xlink:href="#m1" y="5" /><use height="1" width="1" x="20" xlink:href="#m2" y="6" /><use height="1" width="1" x="20" xlink:href="#m3" y="7" /><use height="1" width="1" x="20" xlink:href="#m2" y="8" /><use height="1" width="1" x="20" xlink:href="#m2" y="9" /><use height="1" width="1" x="20" xlink:href="#m2" y="10" /><use height="1" width="1" x="20" xlink:href="#m1" y="13" /><use height="1" width="1" x="20" xlink:href="#m1" y="14" /><use height="1" width="1" x="20" xlink:href="#m3" y="15" /><use height="1" width="1" x="20" xlink:href="#m2" y="16" /><use height="1" width="1" x="20" xlink:href="#m1" y="17" /><use height="1" width="1" x="20" xlink:href="#m1" y="18" /><use height="1" width="1" x="20" xlink:href="#m2" y="19" /><use height="1" width="1" x="20" xlink:href="#m2" y="20" /><use height="1" width="1" x="20" xlink:href="#m1" y="21" /><use height="1" width="1" x="20" xlink:href="#m1" y="22" /><use height="1" width="1" x="20" xlink:href="#m3" y="23" /><use height="1" width="1" x="20" xlink:href="#m1" y="24" /><use height="1" width="1" x="20" xlink:href="#m3" y="25" /><use height="1" width="1" x="20" xlink:href="#m1" y="26" /><use height="1" width="1" x="20" xlink:href="#m1" y="27" /><use height="1" width="1" x="20" xlink:href="#m2" y="28" /><use height="1" width="1" x="20" xlink:href="#m3" y="29" /><use height="1" width="1" x="21" xlink:href="#m1" y="5" /><use height="1" width="1" x="21" xlink:href="#m1" y="6" /><use height="1" width="1" x="21" xlink:href="#m2" y="9" /><use height="1" width="1" x="21" xlink:href="#m2" y="10" /><use height="1" width="1" x="21" xlink:href="#m2" y="12" /><use height="1" width="1" x="21" xlink:href="#m2" y="13" /><use height="1" width="1" x="21" xlink:href="#m3" y="14" /><use height="1" width="1" x="21" xlink:href="#m3" y="15" /><use height="1" width="1" x="21" xlink:href="#m3" y="16" /><use height="1" width="1" x="21" xlink:href="#m3" y="17" /><use height="1" width="1" x="21" xlink:href="#m1" y="18" /><use height="1" width="1" x="21" xlink:href="#m2" y="19" /><use height="1" width="1" x="21" xlink:href="#m1" y="20" /><use height="1" width="1" x="21" xlink:href="#m1" y="22" /><use height="1" width="1" x="21" xlink:href="#m1" y="23" /><use height="1" width="1" x="21" xlink:href="#m3" y="24" /><use height="1" width="1" x="21" xlink:href="#m1" y="25" /><use height="1" width="1" x="21" xlink:href="#m1" y="26" /><use height="1" width="1" x="21" xlink:href="#m3" y="27" /><use height="1" width="1" x="21" xlink:href="#m1" y="28" /><use height="1" width="1" x="22" xlink:href="#m2" y="6" /><use height="1" width="1" x="22" xlink:href="#m1" y="8" /><use height="1" width="1" x="22" xlink:href="#m3" y="9" /><use height="1" width="1" x="22" xlink:href="#m2" y="10" /><use height="1" width="1" x="22" xlink:href="#m2" y="12" /><use height="1" width="1" x="22" xlink:href="#m3" y="13" /><use height="1" width="1" x="22" xlink:href="#m2" y="14" /><use height="1" width="1" x="22" xlink:href="#m2" y="15" /><use height="1" width="1" x="22" xlink:href="#m1" y="16" /><use height="1" width="1" x="22" xlink:href="#m1" y="19" /><use height="1" width="1" x="22" xlink:href="#m2" y="20" /><use height="1" width="1" x="22" xlink:href="#m3" y="21" /><use height="1" width="1" x="22" xlink:href="#m1" y="23" /><use height="1" width="1" x="22" xlink:href="#m3" y="24" /><use height="1" width="1" x="22" xlink:href="#m3" y="25" /><use height="1" width="1" x="22" xlink:href="#m3" y="26" /><use height="1" width="1" x="22" xlink:href="#m2" y="27" /><use height="1" width="1" x="22" xlink:href="#m1" y="28" /><use height="1" width="1" x="22" xlink:href="#m1" y="29" /><use height="1" width="1" x="23" xlink:href="#m3" y="6" /><use height="1" width="1" x="23" xlink:href="#m2" y="7" /><use height="1" width="1" x="23" xlink:href="#m1" y="8" /><use height="1" width="1" x="23" xlink:href="#m2" y="9" /><use height="1" width="1" x="23" xlink:href="#m2" y="10" /><use height="1" width="1" x="23" xlink:href="#m1" y="12" /><use height="1" width="1" x="23" xlink:href="#m2" y="14" /><use height="1" width="1" x="23" xlink:href="#m1" y="15" /><use height="1" width="1" x="23" xlink:href="#m1" y="16" /><use height="1" width="1" x="23" xlink:href="#m3" y="18" /><use height="1" width="1" x="23" xlink:href="#m2" y="22" /><use height="1" width="1" x="23" xlink:href="#m3" y="24" /><use height="1" width="1" x="23" xlink:href="#m2" y="26" /><use height="1" width="1" x="23" xlink:href="#m1" y="27" /><use height="1" width="1" x="23" xlink:href="#m2" y="28" /><use height="1" width="1" x="23" xlink:href="#m2" y="29" /><use height="1" width="1" x="24" xlink:href="#m2" y="5" /><use height="1" width="1" x="24" xlink:href="#m1" y="6" /><use height="1" width="1" x="24" xlink:href="#m2" y="7" /><use height="1" width="1" x="24" xlink:href="#m1" y="9" /><use height="1" width="1" x="24" xlink:href="#m1" y="11" /><use height="1" width="1" x="24" xlink:href="#m1" y="12" /><use height="1" width="1" x="24" xlink:href="#m1" y="13" /><use height="1" width="1" x="24" xlink:href="#m3" y="14" /><use height="1" width="1" x="24" xlink:href="#m1" y="16" /><use height="1" width="1" x="24" xlink:href="#m3" y="17" /><use height="1" width="1" x="24" xlink:href="#m1" y="18" /><use height="1" width="1" x="24" xlink:href="#m3" y="19" /><use height="1" width="1" x="24" xlink:href="#m2" y="20" /><use height="1" width="1" x="24" xlink:href="#m2" y="21" /><use height="1" width="1" x="24" xlink:href="#m2" y="26" /><use height="1" width="1" x="24" xlink:href="#m1" y="27" /><use height="1" width="1" x="24" xlink:href="#m2" y="29" /><use height="1" width="1" x="25" xlink:href="#m2" y="5" /><use height="1" width="1" x="25" xlink:href="#m3" y="6" /><use height="1" width="1" x="25" xlink:href="#m3" y="7" /><use height="1" width="1" x="25" xlink:href="#m2" y="9" /><use height="1" width="1" x="25" xlink:href="#m1" y="11" /><use height="1" width="1" x="25" xlink:href="#m2" y="12" /><use height="1" width="1" x="25" xlink:href="#m1" y="16" /><use height="1" width="1" x="25" xlink:href="#m1" y="17" /><use height="1" width="1" x="25" xlink:href="#m3" y="18" /><use height="1" width="1" x="25" xlink:href="#m1" y="20" /><use height="1" width="1" x="25" xlink:href="#m3" y="21" /><use height="1" width="1" x="25" xlink:href="#m1" y="22" /><use height="1" width="1" x="25" xlink:href="#m3" y="23" /><use height="1" width="1" x="25" xlink:href="#m2" y="24" /><use height="1" width="1" x="25" xlink:href="#m3" y="25" /><use height="1" width="1" x="25" xlink:href="#m3" y="27" /><use height="1" width="1" x="25" xlink:href="#m2" y="28" /><use height="1" width="1" x="25" xlink:href="#m1" y="29" /><use height="1" width="1" x="26" xlink:href="#m2" y="5" /><use height="1" width="1" x="26" xlink:href="#m2" y="6" /><use height="1" width="1" x="26" xlink:href="#m1" y="9" /><use height="1" width="1" x="26" xlink:href="#m1" y="10" /><use height="1" width="1" x="26" xlink:href="#m2" y="11" /><use height="1" width="1" x="26" xlink:href="#m2" y="12" /><use height="1" width="1" x="26" xlink:href="#m2" y="13" /><use height="1" width="1" x="26" xlink:href="#m1" y="14" /><use height="1" width="1" x="26" xlink:href="#m2" y="15" /><use height="1" width="1" x="26" xlink:href="#m2" y="19" /><use height="1" width="1" x="26" xlink:href="#m3" y="21" /><use height="1" width="1" x="26" xlink:href="#m3" y="23" /><use height="1" width="1" x="26" xlink:href="#m1" y="24" /><use height="1" width="1" x="26" xlink:href="#m3" y="25" /><use height="1" width="1" x="26" xlink:href="#m1" y="26" /><use height="1" width="1" x="26" xlink:href="#m1" y="27" /><use height="1" width="1" x="26" xlink:href="#m1" y="28" /><use height="1" width="1" x="26" xlink:href="#m2" y="29" /><use height="1" width="1" x="27" xlink:href="#m2" y="6" /><use height="1" width="1" x="27" xlink:href="#m2" y="7" /><use height="1" width="1" x="27" xlink:href="#m2" y="8" /><use height="1" width="1" x="27" xlink:href="#m3" y="10" /><use height="1" width="1" x="27" xlink:href="#m3" y="11" /><use height="1" width="1" x="27" xlink:href="#m2" y="12" /><use height="1" width="1" x="27" xlink:href="#m2" y="13" /><use height="1" width="1" x="27" xlink:href="#m1" y="15" /><use height="1" width="1" x="27" xlink:href="#m1" y="16" /><use height="1" width="1" x="27" xlink:href="#m1" y="18" /><use height="1" width="1" x="27" xlink:href="#m1" y="19" /><use height="1" width="1" x="27" xlink:href="#m2" y="20" /><use height="1" width="1" x="27" xlink:href="#m3" y="21" /><use height="1" width="1" x="27" xlink:href="#m2" y="22" /><use height="1" width="1" x="27" xlink:href="#m1" y="24" /><use height="1" width="1" x="27" xlink:href="#m2" y="25" /><use height="1" width="1" x="27" xlink:href="#m2" y="26" /><use height="1" width="1" x="27" xlink:href="#m1" y="27" /><use height="1" width="1" x="27" xlink:href="#m1" y="28" /><use height="1" width="1" x="27" xlink:href="#m3" y="29" /><use height="1" width="1" x="28" xlink:href="#m1" y="7" /><use height="1" width="1" x="28" xlink:href="#m3" y="9" /><use height="1" width="1" x="28" xlink:href="#m3" y="10" /><use height="1" width="1" x="28" xlink:href="#m2" y="11" /><use height="1" width="1" x="28" xlink:href="#m2" y="12" /><use height="1" width="1" x="28" xlink:href="#m1" y="13" /><use height="1" width="1" x="28" xlink:href="#m2" y="14" /><use height="1" width="1" x="28" xlink:href="#m3" y="15" /><use height="1" width="1" x="28" xlink:href="#m2" y="19" /><use height="1" width="1" x="28" xlink:href="#m3" y="20" /><use height="1" width="1" x="28" xlink:href="#m2" y="21" /><use height="1" width="1" x="28" xlink:href="#m2" y="22" /><use height="1" width="1" x="28" xlink:href="#m3" y="24" /><use height="1" width="1" x="28" xlink:href="#m3" y="25" /><use height="1" width="1" x="28" xlink:href="#m1" y="26" /><use height="1" width="1" x="28" xlink:href="#m1" y="27" /><use height="1" width="1" x="29" xlink:href="#m3" y="5" /><use height="1" width="1" x="29" xlink:href="#m3" y="8" /><use height="1" width="1" x="29" xlink:href="#m2" y="9" /><use height="1" width="1" x="29" xlink:href="#m3" y="10" /><use height="1" width="1" x="29" xlink:href="#m1" y="11" /><use height="1" width="1" x="29" xlink:href="#m1" y="12" /><use height="1" width="1" x="29" xlink:href="#m2" y="14" /><use height="1" width="1" x="29" xlink:href="#m2" y="15" /><use height="1" width="1" x="29" xlink:href="#m3" y="17" /><use height="1" width="1" x="29" xlink:href="#m1" y="19" /><use height="1" width="1" x="29" xlink:href="#m3" y="20" /><use height="1" width="1" x="29" xlink:href="#m1" y="21" /><use height="1" width="1" x="29" xlink:href="#m1" y="22" /><use height="1" width="1" x="29" xlink:href="#m2" y="23" /><use height="1" width="1" x="29" xlink:href="#m3" y="24" /><use height="1" width="1" x="29" xlink:href="#m2" y="26" /><use height="1" width="1" x="29" xlink:href="#m3" y="27" /><use height="1" width="1" x="29" xlink:href="#m3" y="29" /></g></svg>
