<svg baseProfile="full" height="280" version="1.1" width="280" xmlns="http://www.w3.org/2000/svg" xmlns:ev="http://www.w3.org/2001/xml-events" xmlns:xlink="http://www.w3.org/1999/xlink"><defs><symbol id="m4" viewBox="0,0,1,1"><path d="M 0.3125 0.0625 h 0.375 a 0.25 0.25 0 0 1 0.25 0.25 v 0.375 a 0.25 0.25 0 0 1 -0.25 0.25 h -0.375 a 0.25 0.25 0 0 1 -0.25 -0.25 v -0.375 a 0.25 0.25 0 0 1 0.25 -0.25 Z" fill="#aaa" /></symbol><symbol id="m5" viewBox="0,0,1,1"><path d="M 0.3125 0.0625 h 0.375 a 0.25 0.25 0 0 1 0.25 0.25 v 0.375 a 0.25 0.25 0 0 1 -0.25 0.25 h -0.375 a 0.25 0.25 0 0 1 -0.25 -0.25 v -0.375 a 0.25 0.25 0 0 1 0.25 -0.25 Z" fill="#f00" /></symbol><symbol id="m6" viewBox="0,0,1,1"><path d="M 0.3125 0.0625 h 0.375 a 0.25 0.25 0 0 1 0.25 0.25 v 0.375 a 0.25 0.25 0 0 1 -0.25 0.25 h -0.375 a 0.25 0.25 0 0 1 -0.25 -0.25 v -0.375 a 0.25 0.25 0 0 1 0.25 -0.25 Z" fill="#0f0" /></symbol><symbol id="m7" viewBox="0,0,1,1"><path d="M 0.3125 0.0625 h 0.375 a 0.25 0.25 0 0 1 0.25 0.25 v 0.375 a 0.25 0.25 0 0 1 -0.25 0.25 h -0.375 a 0.25 0.25 0 0 1 -0.25 -0.25 v -0.375 a 0.25 0.25 0 0 1 0.25 -0.25 Z" fill="#00f" /></symbol></defs><g transform="scale(8)"><path d="M 3 2 h 29 a 1 1 0 0 1 1 1 v 29 a 1 1 0 0 1 -1 1 h -29 a 1 1 0 0 1 -1 -1 v -29 a 1 1 0 0 1 1 -1 Z" fill="#000" /><path d="M 4.5 4 h 26.0 a 0.5 0.5 0 0 1 0.5 0.5 v 26.0 a 0.5 0.5 0 0 1 -0.5 0.5 h -26.0 a 0.5 0.5 0 0 1 -0.5 -0.5 v -26.0 a 0.5 0.5 0 0 1 0.5 -0.5 Z" fill="#fff" /><use height="1" width="1" x="5" xlink:href="#m4" y="5" /><use height="1" width="1" x="5" xlink:href="#m4" y="6" /><use height="1" width="1" x="5" xlink:href="#m4" y="7" /><use height="1" width="1" x="5" xlink:href="#m4" y="16" /><use height="1" width="1" x="5" xlink:href="#m7" y="17" /><use height="1" width="1" x="5" xlink:href="#m4" y="18" /><use height="1" width="1" x="5" xlink:href="#m7" y="27" /><use height="1" width="1" x="5" xlink:href="#m4" y="28" /><use height="1" width="1" x="5" xlink:href="#m7" y="29" /><use height="1" width="1" x="6" xlink:href="#m4" y="5" /><use height="1" width="1" x="6" xlink:href="#m7" y="6" /><use height="1" width="1" x="6" xlink:href="#m4" y="7" /><use height="1" width="1" x="6" xlink:href="#m4" y="16" /><use height="1" width="1" x="6" xlink:href="#m4" y="17" /><use height="1" width="1" x="6" xlink:href="#m4" y="18" /><use height="1" width="1" x="6" xlink:href="#m4" y="28" /><use height="1" width="1" x="6" xlink:href="#m4" y="29" /><use height="1" width="1" x="7" xlink:href="#m4" y="5" /><use height="1" width="1" x="7" xlink:href="#m4" y="6" /><use height="1" width="1" x="7" xlink:href="#m4" y="7" /><use height="1" width="1" x="16" xlink:href="#m4" y="5" /><use height="1" width="1" x="16" xlink:href="#m4" y="6" /><use height="1" width="1" x="16" xlink:href="#m4" y="16" /><use height="1" width="1" x="16" xlink:href="#m4" y="17" /><use height="1" width="1" x="16" xlink:href="#m4" y="18" /><use height="1" width="1" x="16" xlink:href="#m4" y="28" /><use height="1" width="1" x="16" xlink:href="#m4" y="29" /><use height="1" width="1" x="17" xlink:href="#m7" y="5" /><use height="1" width="1" x="17" xlink:href="#m4" y="6" /><use height="1" width="1" x="17" xlink:href="#m4" y="16" /><use height="1" width="1" x="17" xlink:href="#m7" y="17" /><use height="1" width="1" x="17" xlink:href="#m4" y="18" /><use height="1" width="1" x="17" xlink:href="#m4" y="28" /><use height="1" width="1" x="17" xlink:href="#m7" y="29" /><use height="1" width="1" x="18" xlink:href="#m4" y="5" /><use height="1" width="1" x="18" xlink:href="#m4" y="6" /><use height="1" width="1" x="18" xlink:href="#m4" y="16" /><use height="1" width="1" x="18" xlink:href="#m4" y="17" /><use height="1" width="1" x="18" xlink:href="#m4" y="18" /><use height="1" width="1" x="18" xlink:href="#m4" y="28" /><use height="1" width="1" x="18" xlink:href="#m4" y="29" /><use height="1" width="1" x="28" xlink:href="#m4" y="5" /><use height="1" width="1" x="28" xlink:href="#m4" y="6" /><use height="1" width="1" x="28" xlink:href="#m4" y="16" /><use height="1" width="1" x="28" xlink:href="#m4" y="17" /><use height="1" width="1" x="28" xlink:href="#m4" y="18" /><use height="1" width="1" x="28" xlink:href="#m4" y="28" /><use height="1" width="1" x="28" xlink:href="#m4" y="29" /><use height="1" width="1" x="29" xlink:href="#m7" y="5" /><use height="1" width="1" x="29" xlink:href="#m4" y="6" /><use height="1" width="1" x="29" xlink:href="#m4" y="7" /><use height="1" width="1" x="29" xlink:href="#m4" y="16" /><use height="1" width="1" x="29" xlink:href="#m7" y="17" /><use height="1" width="1" x="29" xlink:href="#m4" y="18" /><use height="1" width="1" x="29" xlink:href="#m7" y="27" /><use height="1" width="1" x="29" xlink:href="#m4" y="28" /><use height="1" width="1" x="29" xlink:href="#m7" y="29" /></g></svg>
